<svg width="23" height="23" viewBox="0 0 23 23" fill="none" xmlns="http://www.w3.org/2000/svg">
<path fill-rule="evenodd" clip-rule="evenodd" d="M17.1674 17.43C17.5912 17.0565 17.8601 16.5119 17.865 15.9034L17.9151 9.70523C17.9178 9.39038 17.848 9.07913 17.7113 8.7955C17.5746 8.51187 17.3746 8.26344 17.1266 8.06936L12.3601 4.3415C12.003 4.0619 11.5633 3.9083 11.1097 3.90463C10.6561 3.90096 10.214 4.04743 9.85236 4.32122L5.02619 7.97148C4.77497 8.16166 4.57082 8.40704 4.42953 8.68868C4.28824 8.97032 4.21358 9.28066 4.21133 9.59574L4.1612 15.7926C4.1583 16.0619 4.2085 16.3292 4.30893 16.5791C4.40937 16.829 4.55806 17.0567 4.74652 17.2491C4.93498 17.4416 5.15951 17.595 5.40729 17.7006C5.65506 17.8062 5.92122 17.862 6.19055 17.8647L6.88533 17.8703L6.92413 13.074C6.93001 12.3471 7.2244 11.6523 7.74255 11.1425C8.2607 10.6327 8.96016 10.3495 9.68705 10.3554L12.4278 10.3776C13.1547 10.3835 13.8495 10.6779 14.3593 11.196C14.8692 11.7142 15.1523 12.4136 15.1464 13.1405L15.1076 17.9368L15.8024 17.9425C16.3245 17.9439 16.8044 17.7505 17.1674 17.43ZM19.9206 15.9201C19.9117 17.0104 19.4701 18.0526 18.6929 18.8173C17.9157 19.5821 16.8665 20.0068 15.7762 19.998L6.18351 19.9204C5.09317 19.9115 4.05099 19.4699 3.28624 18.6927C2.52149 17.9155 2.09681 16.8663 2.10563 15.776L2.15577 9.57775C2.16091 8.94828 2.31052 8.3284 2.59307 7.76589C2.87562 7.20338 3.28357 6.71327 3.78546 6.33333L8.61163 2.68307C9.33497 2.13549 10.2191 1.84255 11.1263 1.84989C12.0335 1.85722 12.9128 2.16443 13.6272 2.72364L18.3937 6.45149C18.8896 6.83964 19.2896 7.33652 19.5631 7.90378C19.8365 8.47104 19.9759 9.09353 19.9707 9.72322L19.9206 15.9201ZM13.0908 13.1239C13.0923 12.9422 13.0215 12.7673 12.8941 12.6378C12.7666 12.5082 12.5929 12.4346 12.4112 12.4332L9.67043 12.411C9.4887 12.4095 9.31384 12.4803 9.1843 12.6078C9.05476 12.7352 8.98117 12.9089 8.9797 13.0906L8.9409 17.887L13.052 17.9202L13.0908 13.1239Z" fill="#8A38F5"/>
</svg>
