<svg width="27" height="27" viewBox="0 0 27 27" fill="none" xmlns="http://www.w3.org/2000/svg">
<path d="M13.5 9C13.5 9 13.5 9 12.645 7.875C11.655 6.57 10.1925 5.625 8.4375 5.625C5.63625 5.625 3.375 7.88625 3.375 10.6875C3.375 11.7338 3.69 12.7013 4.23 13.5C5.14125 14.8613 13.5 23.625 13.5 23.625M13.5 9C13.5 9 13.5 9 14.355 7.875C15.345 6.57 16.8075 5.625 18.5625 5.625C21.3638 5.625 23.625 7.88625 23.625 10.6875C23.625 11.7338 23.31 12.7013 22.77 13.5C21.8587 14.8613 13.5 23.625 13.5 23.625" stroke="#8A38F5" stroke-width="2" stroke-linecap="round" stroke-linejoin="round"/>
</svg>
