<svg width="27" height="27" viewBox="0 0 27 27" fill="none" xmlns="http://www.w3.org/2000/svg">
<path d="M3.375 7.59375C3.375 6.47487 3.81947 5.40181 4.61064 4.61064C5.40181 3.81947 6.47487 3.375 7.59375 3.375H19.4062C20.5251 3.375 21.5982 3.81947 22.3894 4.61064C23.1805 5.40181 23.625 6.47487 23.625 7.59375V19.4062C23.625 20.5251 23.1805 21.5982 22.3894 22.3894C21.5982 23.1805 20.5251 23.625 19.4062 23.625H7.59375C6.47487 23.625 5.40181 23.1805 4.61064 22.3894C3.81947 21.5982 3.375 20.5251 3.375 19.4062V7.59375ZM7.59375 5.0625C6.92242 5.0625 6.27859 5.32918 5.80389 5.80389C5.32918 6.27859 5.0625 6.92242 5.0625 7.59375V9.28125H9.28125V5.0625H7.59375ZM10.9688 5.0625V9.28125H16.0312V5.0625H10.9688ZM10.9688 10.9688V16.0312H16.0312V10.9688H10.9688ZM9.28125 16.0312V10.9688H5.0625V16.0312H9.28125ZM5.0625 17.7188V19.4062C5.0625 20.0776 5.32918 20.7214 5.80389 21.1961C6.27859 21.6708 6.92242 21.9375 7.59375 21.9375H9.28125V17.7188H5.0625ZM10.9688 17.7188V21.9375H16.0312V17.7188H10.9688ZM17.7188 17.7188V21.9375H19.4062C20.0776 21.9375 20.7214 21.6708 21.1961 21.1961C21.6708 20.7214 21.9375 20.0776 21.9375 19.4062V17.7188H17.7188ZM21.9375 16.0312V10.9688H17.7188V16.0312H21.9375ZM17.7188 5.0625V9.28125H21.9375V7.59375C21.9375 6.92242 21.6708 6.27859 21.1961 5.80389C20.7214 5.32918 20.0776 5.0625 19.4062 5.0625H17.7188Z" fill="#8A38F5"/>
</svg>
